<!--?xml version="1.0" encoding="UTF-8" standalone="no"?-->
<svg xmlns:dc="http://purl.org/dc/elements/1.1/" xmlns:cc="http://creativecommons.org/ns#" xmlns:rdf="http://www.w3.org/1999/02/22-rdf-syntax-ns#" xmlns:svg="http://www.w3.org/2000/svg" xmlns="http://www.w3.org/2000/svg" id="SVGRoot" version="1.1" viewBox="0 0 1920 1080" height="1080px" width="1920px" style="">
  <defs id="defs10"></defs>
  <metadata id="metadata13">
    <rdf:rdf>
      <cc:work rdf:about="">
        <dc:format>image/svg+xml</dc:format>
        <dc:type rdf:resource="http://purl.org/dc/dcmitype/StillImage"></dc:type>
        <dc:title></dc:title>
      </cc:work>
    </rdf:rdf>
  </metadata>
  <g id="layer1">
    <path id="path4117" d="M 884.16818,500.55079 786.3377,480.6261 692.13059,494.5734 652.27375,478.63362 786.3377,422.84438 746.48085,315.25096 496.46973,303.2961 279.0687,315.25096 170.36816,382.995 152.25137,420.85195 43.55085,317.24338 123.26455,171.79297 260.95191,100.06396 500.09299,44.274787 953.01186,30.327496 l 173.92074,15.93978 253.6347,57.781654 231.8944,55.78916 79.7137,85.67631 97.8306,103.60855 57.9735,97.6311 43.4802,125.52569 -213.7777,77.70642 -231.8945,51.80425 c 0,0 -32.6101,19.9247 -123.1938,27.89458 -90.5838,7.96989 -264.5047,27.89466 -282.6214,27.89466 -18.1168,0 -253.6346,15.9397 -286.24468,9.96231 C 721.11741,761.56456 438.4961,683.85814 424.00269,673.89583 409.50928,663.93345 275.44531,604.1593 275.44531,604.1593 l -108.70054,-75.71391 206.53104,-131.5031 105.07713,5.97739 123.19393,-9.96237 65.22028,-31.87957 -97.83048,-7.96981 -119.57055,11.9548 -112.3239,11.9548 -32.61008,7.96988 18.11668,-33.87198 141.31072,-21.91718 144.93397,-1.99248 86.96047,11.95479 14.49341,37.85697 -47.10362,53.79673 -94.2071,73.72145 -7.24665,45.82685 134.06396,37.85696 134.06395,-45.82685 137.68733,3.98498 83.33714,-21.91718 286.2447,25.90209 -271.7513,35.86447 -289.86813,13.94737 -68.84366,-9.96239 z" style="fill:none;stroke:white;stroke-width:8.91657925px;stroke-linecap:butt;stroke-linejoin:miter;stroke-opacity:1" class="dyLuoaXk_0"></path>
    <path id="path4119" d="m 1105.1926,359.08532 141.3107,-1.99249 152.1806,-15.93978 61.597,-11.9548 -163.0507,-7.96988 h -94.2072 l -36.2334,13.94728 z" style="fill:none;stroke:white;stroke-width:8.91657925px;stroke-linecap:butt;stroke-linejoin:miter;stroke-opacity:1" class="dyLuoaXk_1"></path>
    <path id="path4121" d="m 1123.3095,287.35631 -65.2205,-15.93982 311.6081,-13.94728 134.0641,13.94728 50.7269,33.87209 -166.6742,-19.92469 -105.0771,-5.9775 -134.064,9.9624 z" style="fill:none;stroke:white;stroke-width:8.91657925px;stroke-linecap:butt;stroke-linejoin:miter;stroke-opacity:1" class="dyLuoaXk_2"></path>
    <path id="path4123" d="m 1105.2578,430.79172 22.6026,31.07269 -45.2051,16.5721" style="fill:none;stroke:white;stroke-width:8.91657925px;stroke-linecap:butt;stroke-linejoin:miter;stroke-opacity:1" class="dyLuoaXk_3"></path>
    <path id="path4136" d="m 1188.1337,884.45301 161.9848,-80.78897 -86.643,-4.14307 -120.5469,24.85818 -82.876,-16.57211 -26.3696,26.92969 z" style="fill:none;stroke:white;stroke-width:8.91657925px;stroke-linecap:butt;stroke-linejoin:miter;stroke-opacity:1" class="dyLuoaXk_4"></path>
    <path id="path4178" d="m 1350.1185,803.66404 367.6017,-96.1865 z" style="fill:none;stroke:white;stroke-width:8.91657925px;stroke-linecap:butt;stroke-linejoin:miter;stroke-opacity:1" class="dyLuoaXk_5"></path>
    <path id="path4237" d="m 1033.683,834.73673 c -588.62467,6.60859 -588.62467,6.60859 -588.62467,6.60859" style="fill:none;stroke:white;stroke-width:8.91657925px;stroke-linecap:butt;stroke-linejoin:miter;stroke-opacity:1" class="dyLuoaXk_6"></path>
    <path id="path4239" d="M 1060.0526,807.80704 C 985.97714,761.04518 985.97714,761.04518 985.97714,761.04518" style="fill:none;stroke:white;stroke-width:8.91657925px;stroke-linecap:butt;stroke-linejoin:miter;stroke-opacity:1" class="dyLuoaXk_7"></path>
    <path id="path4241" d="m 1188.1337,884.45301 c 11.2661,231.77149 7.6427,233.76389 7.6427,233.76389" style="fill:none;stroke:white;stroke-width:8.91657925px;stroke-linecap:butt;stroke-linejoin:miter;stroke-opacity:1" class="dyLuoaXk_8"></path>
    <path id="path4243" d="m 1275.49,843.25588 c 405.8154,191.27732 405.8154,191.27732 405.8154,191.27732" style="fill:none;stroke:white;stroke-width:8.91657925px;stroke-linecap:butt;stroke-linejoin:miter;stroke-opacity:1" class="dyLuoaXk_9"></path>
    <path id="path4245" d="m 1263.4755,799.52097 c 182.312,-97.73056 182.312,-97.73056 182.312,-97.73056" style="fill:none;stroke:white;stroke-width:8.91657925px;stroke-linecap:butt;stroke-linejoin:miter;stroke-opacity:1" class="dyLuoaXk_10"></path>
    <path id="path4247" d="m 1033.683,834.73673 c 13.536,50.36103 13.536,50.36103 13.536,50.36103 L 757.35089,1054.4579 1047.219,887.09024 l 140.9147,-2.63723 v 0 l -137.2913,0.64468 z" style="fill:none;stroke:white;stroke-width:8.91657925px;stroke-linecap:butt;stroke-linejoin:miter;stroke-opacity:1" class="dyLuoaXk_11"></path>
  </g>
<style data-made-with="vivus-instant">.dyLuoaXk_0{stroke-dasharray:8516 8518;stroke-dashoffset:8517;animation:dyLuoaXk_draw 2666ms ease-in-out 0ms forwards;}.dyLuoaXk_1{stroke-dasharray:720 722;stroke-dashoffset:721;animation:dyLuoaXk_draw 2666ms ease-in-out 121ms forwards;}.dyLuoaXk_2{stroke-dasharray:1008 1010;stroke-dashoffset:1009;animation:dyLuoaXk_draw 2666ms ease-in-out 242ms forwards;}.dyLuoaXk_3{stroke-dasharray:87 89;stroke-dashoffset:88;animation:dyLuoaXk_draw 2666ms ease-in-out 363ms forwards;}.dyLuoaXk_4{stroke-dasharray:676 678;stroke-dashoffset:677;animation:dyLuoaXk_draw 2666ms ease-in-out 484ms forwards;}.dyLuoaXk_5{stroke-dasharray:760 762;stroke-dashoffset:761;animation:dyLuoaXk_draw 2666ms ease-in-out 606ms forwards;}.dyLuoaXk_6{stroke-dasharray:589 591;stroke-dashoffset:590;animation:dyLuoaXk_draw 2666ms ease-in-out 727ms forwards;}.dyLuoaXk_7{stroke-dasharray:88 90;stroke-dashoffset:89;animation:dyLuoaXk_draw 2666ms ease-in-out 848ms forwards;}.dyLuoaXk_8{stroke-dasharray:234 236;stroke-dashoffset:235;animation:dyLuoaXk_draw 2666ms ease-in-out 969ms forwards;}.dyLuoaXk_9{stroke-dasharray:449 451;stroke-dashoffset:450;animation:dyLuoaXk_draw 2666ms ease-in-out 1090ms forwards;}.dyLuoaXk_10{stroke-dasharray:207 209;stroke-dashoffset:208;animation:dyLuoaXk_draw 2666ms ease-in-out 1212ms forwards;}.dyLuoaXk_11{stroke-dasharray:1055 1057;stroke-dashoffset:1056;animation:dyLuoaXk_draw 2666ms ease-in-out 1333ms forwards;}@keyframes dyLuoaXk_draw{100%{stroke-dashoffset:0;}}@keyframes dyLuoaXk_fade{0%{stroke-opacity:1;}95.1219512195122%{stroke-opacity:1;}100%{stroke-opacity:0;}}</style></svg>
