<!--?xml version="1.0" encoding="UTF-8" standalone="no"?-->
<svg xmlns:dc="http://purl.org/dc/elements/1.1/" xmlns:cc="http://creativecommons.org/ns#" xmlns:rdf="http://www.w3.org/1999/02/22-rdf-syntax-ns#" xmlns:svg="http://www.w3.org/2000/svg" xmlns="http://www.w3.org/2000/svg" id="SVGRoot" version="1.1" viewBox="0 0 649 650" height="650px" width="649px" style="">
  <defs id="defs1193"></defs>
  <metadata id="metadata1196">
    <rdf:rdf>
      <cc:work rdf:about="">
        <dc:format>image/svg+xml</dc:format>
        <dc:type rdf:resource="http://purl.org/dc/dcmitype/StillImage"></dc:type>
        <dc:title></dc:title>
      </cc:work>
    </rdf:rdf>
  </metadata>
  <g id="layer1">
    <path id="path987" d="m 334.83055,538.99571 c -230.0352,-98.75793 -228.102,-100.21025 -228.102,-100.21025 l -1.9332,-200.42051 222.303,-100.21025 235.8344,103.1149 v 194.61121 z" style="fill: none; stroke: #fffaf0; stroke-width: 10.8873; stroke-linecap: butt; stroke-linejoin: miter; stroke-miterlimit: 4; stroke-opacity: 1;" class="NmFGlytn_0"></path>
    <path id="path989" d="M 102.86235,340.02753 C 37.13798,338.5752 37.13798,338.5752 37.13798,338.5752 l 7.73225,-1.45232 z" style="fill: none; stroke: #fffaf0; stroke-width: 10.8873; stroke-linecap: butt; stroke-linejoin: miter; stroke-miterlimit: 4; stroke-opacity: 1;" class="NmFGlytn_1"></path>
    <path id="path991" d="m 214.98035,188.98599 -32.8622,-37.76038 z" style="fill: none; stroke: #fffaf0; stroke-width: 10.8873; stroke-linecap: butt; stroke-linejoin: miter; stroke-miterlimit: 4; stroke-opacity: 1;" class="NmFGlytn_2"></path>
    <path id="path993" d="m 445.01555,187.53367 38.6614,-36.30806 z" style="fill: none; stroke: #fffaf0; stroke-width: 10.8873; stroke-linecap: butt; stroke-linejoin: miter; stroke-miterlimit: 4; stroke-opacity: 1;" class="NmFGlytn_3"></path>
    <path id="path995" d="m 564.86575,338.5752 h 61.8583 z" style="fill: none; stroke: #fffaf0; stroke-width: 10.8873; stroke-linecap: butt; stroke-linejoin: miter; stroke-miterlimit: 4; stroke-opacity: 1;" class="NmFGlytn_4"></path>
    <path id="path997" d="m 446.94855,489.61674 36.7284,39.2127 z" style="fill: none; stroke: #fffaf0; stroke-width: 10.8873; stroke-linecap: butt; stroke-linejoin: miter; stroke-miterlimit: 4; stroke-opacity: 1;" class="NmFGlytn_5"></path>
    <path id="path999" d="m 220.77955,488.16442 -38.6614,40.66502 z" style="fill: none; stroke: #fffaf0; stroke-width: 10.8873; stroke-linecap: butt; stroke-linejoin: miter; stroke-miterlimit: 4; stroke-opacity: 1;" class="NmFGlytn_6"></path>
    <path id="path1082" d="m 257.50795,422.80991 -27.063,10.16625 -32.8622,-21.78483 21.2638,-17.42787 -21.2638,-36.30807 -34.7953,-5.80929 v -27.59412 l 32.8622,-7.26161 17.3976,-31.9511 -17.3976,-21.78483 32.8621,-21.78484 27.0631,15.97554 44.4605,-15.97554 5.7992,-26.1418 h 40.5945 l 3.8661,26.1418 46.3937,13.0709 32.8622,-15.97555 30.9291,24.68949 -21.2639,18.88018 15.4647,31.9511 34.7952,5.80929 v 34.85574 l -28.996,4.35697 -17.3976,33.40342 17.3976,18.88019 -34.7953,24.68948 -27.063,-15.97554 -42.5274,15.97554 -3.8662,24.68948 h -48.3267 l -9.6654,-26.14181 z" style="fill: none; stroke: #fffaf0; stroke-width: 11.3937; stroke-linecap: butt; stroke-linejoin: miter; stroke-miterlimit: 4; stroke-opacity: 1;" class="NmFGlytn_7"></path>
    <path id="path1088" style="opacity: 1; fill: none; fill-opacity: 1; stroke: #fffaf0; stroke-width: 11.1405; stroke-miterlimit: 4; stroke-opacity: 1;" d="M251.70862599999998,336.39676A76.356224,55.914417 0,1,1 404.421074,336.39676A76.356224,55.914417 0,1,1 251.70862599999998,336.39676" class="NmFGlytn_8"></path>
  </g>
<style data-made-with="vivus-instant">.NmFGlytn_0{stroke-dasharray:1396 1398;stroke-dashoffset:1397;animation:NmFGlytn_draw 2000ms linear 0ms forwards;}.NmFGlytn_1{stroke-dasharray:132 134;stroke-dashoffset:133;animation:NmFGlytn_draw 2000ms linear 125ms forwards;}.NmFGlytn_2{stroke-dasharray:101 103;stroke-dashoffset:102;animation:NmFGlytn_draw 2000ms linear 250ms forwards;}.NmFGlytn_3{stroke-dasharray:107 109;stroke-dashoffset:108;animation:NmFGlytn_draw 2000ms linear 375ms forwards;}.NmFGlytn_4{stroke-dasharray:124 126;stroke-dashoffset:125;animation:NmFGlytn_draw 2000ms linear 500ms forwards;}.NmFGlytn_5{stroke-dasharray:108 110;stroke-dashoffset:109;animation:NmFGlytn_draw 2000ms linear 625ms forwards;}.NmFGlytn_6{stroke-dasharray:113 115;stroke-dashoffset:114;animation:NmFGlytn_draw 2000ms linear 750ms forwards;}.NmFGlytn_7{stroke-dasharray:1121 1123;stroke-dashoffset:1122;animation:NmFGlytn_draw 2000ms linear 875ms forwards;}.NmFGlytn_8{stroke-dasharray:419 421;stroke-dashoffset:420;animation:NmFGlytn_draw 2000ms linear 1000ms forwards;}@keyframes NmFGlytn_draw{100%{stroke-dashoffset:0;}}@keyframes NmFGlytn_fade{0%{stroke-opacity:1;}94.44444444444444%{stroke-opacity:1;}100%{stroke-opacity:0;}}</style></svg>
