<!--?xml version="1.0" encoding="UTF-8" standalone="no"?-->
<svg xmlns:dc="http://purl.org/dc/elements/1.1/" xmlns:cc="http://creativecommons.org/ns#" xmlns:rdf="http://www.w3.org/1999/02/22-rdf-syntax-ns#" xmlns:svg="http://www.w3.org/2000/svg" xmlns="http://www.w3.org/2000/svg" id="SVGRoot" version="1.1" viewBox="0 0 14 1080" height="600px" width="200px" style="">
  <defs id="defs154"></defs>
  <metadata id="metadata157">
    <rdf:rdf>
      <cc:work rdf:about="">
        <dc:format>image/svg+xml</dc:format>
        <dc:type rdf:resource="http://purl.org/dc/dcmitype/StillImage"></dc:type>
        <dc:title></dc:title>
      </cc:work>
    </rdf:rdf>
  </metadata>
  <g id="layer1">
    <path id="path987" d="m 1330.147,708.08824 c -157.5,-90 -156.1764,-91.32353 -156.1764,-91.32353 l -1.3236,-182.64706 152.2059,-91.32353 161.4706,93.97059 v 177.35294 z" style="fill: none; stroke: #fffaf0; stroke-width: 8.6; stroke-linecap: butt; stroke-linejoin: miter; stroke-opacity: 1; stroke-miterlimit: 4;" class="XNHShjaE_0"></path>
    <path id="path989" d="m 1171.3235,526.76471 c -45,-1.32353 -45,-1.32353 -45,-1.32353 l 5.2941,-1.32353 z" style="fill: none; stroke: #fffaf0; stroke-width: 8.6; stroke-linecap: butt; stroke-linejoin: miter; stroke-opacity: 1; stroke-miterlimit: 4;" class="XNHShjaE_1"></path>
    <path id="path991" d="m 1248.0882,389.11765 -22.5,-34.41176 z" style="fill: none; stroke: #fffaf0; stroke-width: 8.6; stroke-linecap: butt; stroke-linejoin: miter; stroke-opacity: 1; stroke-miterlimit: 4;" class="XNHShjaE_2"></path>
    <path id="path993" d="m 1405.5882,387.79412 26.4706,-33.08823 z" style="fill: none; stroke: #fffaf0; stroke-width: 8.6; stroke-linecap: butt; stroke-linejoin: miter; stroke-opacity: 1; stroke-miterlimit: 4;" class="XNHShjaE_3"></path>
    <path id="path995" d="M 1487.647,525.44118 H 1530 Z" style="fill: none; stroke: #fffaf0; stroke-width: 8.6; stroke-linecap: butt; stroke-linejoin: miter; stroke-opacity: 1; stroke-miterlimit: 4;" class="XNHShjaE_4"></path>
    <path id="path997" d="m 1406.9117,663.08824 25.1471,35.73529 z" style="fill: none; stroke: #fffaf0; stroke-width: 8.6; stroke-linecap: butt; stroke-linejoin: miter; stroke-opacity: 1; stroke-miterlimit: 4;" class="XNHShjaE_5"></path>
    <path id="path999" d="m 1252.0588,661.76471 -26.4706,37.05882 z" style="fill: none; stroke: #fffaf0; stroke-width: 8.6; stroke-linecap: butt; stroke-linejoin: miter; stroke-opacity: 1; stroke-miterlimit: 4;" class="XNHShjaE_6"></path>
    <path id="path1082" d="m 1277.2059,602.20589 -18.5294,9.2647 -22.5,-19.85294 14.5588,-15.88235 -14.5588,-33.08824 -23.8236,-5.29412 v -25.14705 l 22.5,-6.61765 11.9118,-29.11765 -11.9118,-19.85294 22.5,-19.85294 18.5295,14.55882 30.4411,-14.55882 3.9706,-23.82353 h 27.7941 l 2.6471,23.82353 31.7647,11.91176 22.5,-14.55882 21.1765,22.5 -14.5589,17.20588 10.5883,29.11765 23.8235,5.29412 V 540 l -19.8529,3.97059 -11.9118,30.44118 11.9118,17.20588 -23.8236,22.5 -18.5294,-14.55882 -29.1176,14.55882 -2.6471,22.5 h -33.0882 l -6.6177,-23.82353 z" style="fill: none; stroke: #fffaf0; stroke-width: 9; stroke-linecap: butt; stroke-linejoin: miter; stroke-miterlimit: 4; stroke-opacity: 1;" class="XNHShjaE_7"></path>
    <path id="path1088" style="opacity: 1; stroke-width: 8.8; stroke-miterlimit: 4; fill: none; fill-opacity: 1; stroke: #fffaf0; stroke-opacity: 1;" d="M1273.235189,523.45593A52.279411,50.955883 0,1,1 1377.794011,523.45593A52.279411,50.955883 0,1,1 1273.235189,523.45593" class="XNHShjaE_8"></path>
  </g>
<style data-made-with="vivus-instant">.XNHShjaE_0{stroke-dasharray:1088 1090;stroke-dashoffset:1089;animation:XNHShjaE_draw 2000ms linear 0ms forwards;}.XNHShjaE_1{stroke-dasharray:91 93;stroke-dashoffset:92;animation:XNHShjaE_draw 2000ms linear 125ms forwards;}.XNHShjaE_2{stroke-dasharray:83 85;stroke-dashoffset:84;animation:XNHShjaE_draw 2000ms linear 250ms forwards;}.XNHShjaE_3{stroke-dasharray:85 87;stroke-dashoffset:86;animation:XNHShjaE_draw 2000ms linear 375ms forwards;}.XNHShjaE_4{stroke-dasharray:85 87;stroke-dashoffset:86;animation:XNHShjaE_draw 2000ms linear 500ms forwards;}.XNHShjaE_5{stroke-dasharray:88 90;stroke-dashoffset:89;animation:XNHShjaE_draw 2000ms linear 625ms forwards;}.XNHShjaE_6{stroke-dasharray:92 94;stroke-dashoffset:93;animation:XNHShjaE_draw 2000ms linear 750ms forwards;}.XNHShjaE_7{stroke-dasharray:872 874;stroke-dashoffset:873;animation:XNHShjaE_draw 2000ms linear 875ms forwards;}.XNHShjaE_8{stroke-dasharray:325 327;stroke-dashoffset:326;animation:XNHShjaE_draw 2000ms linear 1000ms forwards;}@keyframes XNHShjaE_draw{100%{stroke-dashoffset:0;}}@keyframes XNHShjaE_fade{0%{stroke-opacity:1;}94.44444444444444%{stroke-opacity:1;}100%{stroke-opacity:0;}}</style></svg>
