<?xml version="1.0" encoding="UTF-8" standalone="no"?>
<svg
   xmlns:dc="http://purl.org/dc/elements/1.1/"
   xmlns:cc="http://creativecommons.org/ns#"
   xmlns:rdf="http://www.w3.org/1999/02/22-rdf-syntax-ns#"
   xmlns:svg="http://www.w3.org/2000/svg"
   xmlns="http://www.w3.org/2000/svg"
   width="649px"
   height="650px"
   viewBox="0 0 649 650"
   version="1.1"
   id="SVGRoot">
  <defs
     id="defs1193" />
  <metadata
     id="metadata1196">
    <rdf:RDF>
      <cc:Work
         rdf:about="">
        <dc:format>image/svg+xml</dc:format>
        <dc:type
           rdf:resource="http://purl.org/dc/dcmitype/StillImage" />
        <dc:title></dc:title>
      </cc:Work>
    </rdf:RDF>
  </metadata>
  <g
     id="layer1">
    <path
       style="fill:none;stroke:#fffaf0;stroke-width:5.112;stroke-linecap:butt;stroke-linejoin:miter;stroke-miterlimit:4;stroke-dasharray:none;stroke-opacity:1"
       d="m 334.83055,538.99571 c -230.0352,-98.75793 -228.102,-100.21025 -228.102,-100.21025 l -1.9332,-200.42051 222.303,-100.21025 235.8344,103.1149 v 194.61121 z"
       id="path987" />
    <path
       style="fill:none;stroke:#fffaf0;stroke-width:5.112;stroke-linecap:butt;stroke-linejoin:miter;stroke-miterlimit:4;stroke-dasharray:none;stroke-opacity:1"
       d="m 102.99597,340.50316 c -68.720352,-1.24089 -68.720352,-1.24089 -68.720352,-1.24089 l 8.084717,-1.24088 z"
       id="path989" />
    <path
       style="fill:none;stroke:#fffaf0;stroke-width:5.112;stroke-linecap:butt;stroke-linejoin:miter;stroke-miterlimit:4;stroke-dasharray:none;stroke-opacity:1"
       d="m 214.98035,188.98599 -32.8622,-37.76038 z"
       id="path991" />
    <path
       style="fill:none;stroke:#fffaf0;stroke-width:5.112;stroke-linecap:butt;stroke-linejoin:miter;stroke-miterlimit:4;stroke-dasharray:none;stroke-opacity:1"
       d="m 445.01555,187.53367 38.6614,-36.30806 z"
       id="path993" />
    <path
       style="fill:none;stroke:#fffaf0;stroke-width:5.112;stroke-linecap:butt;stroke-linejoin:miter;stroke-miterlimit:4;stroke-dasharray:none;stroke-opacity:1"
       d="m 564.86575,338.5752 h 61.8583 z"
       id="path995" />
    <path
       style="fill:none;stroke:#fffaf0;stroke-width:5.112;stroke-linecap:butt;stroke-linejoin:miter;stroke-miterlimit:4;stroke-dasharray:none;stroke-opacity:1"
       d="m 446.94855,489.61674 36.7284,39.2127 z"
       id="path997" />
    <path
       style="fill:none;stroke:#fffaf0;stroke-width:5.112;stroke-linecap:butt;stroke-linejoin:miter;stroke-miterlimit:4;stroke-dasharray:none;stroke-opacity:1"
       d="m 220.77955,488.16442 -38.6614,40.66502 z"
       id="path999" />
    <path
       style="fill:none;stroke:#fffaf0;stroke-width:5.112;stroke-linecap:butt;stroke-linejoin:miter;stroke-miterlimit:4;stroke-dasharray:none;stroke-opacity:1"
       d="m 257.50795,422.80991 -27.063,10.16625 -32.8622,-21.78483 21.2638,-17.42787 -21.2638,-36.30807 -34.7953,-5.80929 v -27.59412 l 32.8622,-7.26161 17.3976,-31.9511 -17.3976,-21.78483 32.8621,-21.78484 27.0631,15.97554 44.4605,-15.97554 5.7992,-26.1418 h 40.5945 l 3.8661,26.1418 46.3937,13.0709 32.8622,-15.97555 30.9291,24.68949 -21.2639,18.88018 15.4647,31.9511 34.7952,5.80929 v 34.85574 l -28.996,4.35697 -17.3976,33.40342 17.3976,18.88019 -34.7953,24.68948 -27.063,-15.97554 -42.5274,15.97554 -3.8662,24.68948 h -48.3267 l -9.6654,-26.14181 z"
       id="path1082" />
    <ellipse
       style="opacity:1;fill:none;fill-opacity:1;stroke:#fffaf0;stroke-width:5.112;stroke-miterlimit:4;stroke-dasharray:none;stroke-opacity:1"
       id="path1088"
       cx="328.06485"
       cy="336.39676"
       rx="76.356224"
       ry="55.914417" />
  </g>
</svg>
